<svg xmlns="http://www.w3.org/2000/svg" width="914.11" height="192.01" viewBox="0 0 914.11 192.01"><defs><style>.cls-1{fill:#2d88fe;}.cls-2{fill:#64a3f6;}.cls-3{fill:#535353;}.cls-4{fill:#a5a4a2;}</style></defs><title>Asset 2</title><g id="Layer_2" data-name="Layer 2"><g id="Layer_1-2" data-name="Layer 1"><path class="cls-1" d="M0,149.2V42.2C4,34.1,11.49,31,19.36,28,41.87,19.38,64.21,10.3,86.64,1.42a19,19,0,0,1,14.14-.12Q139.45,16.09,178.09,31c8.32,3.2,12.16,8.5,12.17,17.4q.09,47.72,0,95.45c0,8.84-4,14.25-12.21,17.4q-38.21,14.61-76.41,29.25a20.46,20.46,0,0,1-15.53,0c-23-9.14-46-18.45-69.17-27.23C9.46,160.42,3.22,156.82,0,149.2ZM141.54,43.69,96.76,28.63a9.2,9.2,0,0,0-6.33.46q-29,10.7-58.06,21.31c-3.12,1.13-4.37,3-4.33,6.33q.21,18.23,0,36.47c0,3.36,1.23,5.1,4.45,6.16C51.78,105.73,71,112.26,90.2,118.73a11.34,11.34,0,0,0,7.81-.1q29-10.72,58-21.36c2.67-1,4.09-2.39,4-5.43q-.19-12.74,0-25.48c0-3.24-1.14-3.65-3.92-2.59-7.15,2.71-14.31,5.44-21.59,7.77-4,1.28-6.32,3.26-6.13,7.69.17,4.06-2,6.27-5.81,7.58-8.33,2.85-16.55,6.06-24.82,9.09-2.52.92-5,1.53-7.77.63Q77,92.32,63.85,88.43c-3.5-1-4.71-3.27-4.66-6.68.07-4.83.12-9.66,0-14.49-.11-3.91,1.59-6.08,5.3-7.34,6.93-2.34,13.87-4.74,20.55-7.68,6.2-2.73,12-3,18.24-.21,3.27,1.46,6.81,3.24,10.57,1.9C122.73,50.76,131.57,47.39,141.54,43.69ZM160,134.45c.08-7.41,0-7.53-6.45-5.24-18.19,6.48-36.39,12.95-54.5,19.63a15.35,15.35,0,0,1-11.14.16c-8.6-3.13-17.24-6.18-25.87-9.22-9.9-3.48-19.8-6.93-29.73-10.3-1.37-.47-3.15-1.8-4.15.77A8.85,8.85,0,0,0,33.3,141.9c18.54,7,37.12,13.84,55.65,20.83a12.33,12.33,0,0,0,9.18,0q28.77-10.74,57.63-21.25C159.56,140.09,160.26,137.44,160,134.45Zm0-22.4c0-7.17-.34-7.35-6.4-5.15-16.12,5.86-32.51,11.07-48.33,17.65-8.94,3.72-16.65,3.18-25.36-.23-15.5-6.07-31.36-11.22-47.1-16.65-1.56-.54-3.81-2.46-4.79,1-1.57,5.46.23,9.39,5.62,11.41C52,127,70.47,133.75,88.85,140.7a12.76,12.76,0,0,0,9.64-.2c18.52-7,37.07-14,55.71-20.76C158.43,118.2,160.9,116.17,160,112Z"/><path class="cls-2" d="M160,134.45c.27,3-.43,5.65-4.23,7q-28.87,10.47-57.63,21.25a12.33,12.33,0,0,1-9.18,0c-18.53-7-37.12-13.85-55.65-20.83a8.85,8.85,0,0,1-5.17-11.65c1-2.57,2.78-1.23,4.15-.77,9.93,3.37,19.83,6.83,29.73,10.3,8.64,3,17.27,6.09,25.87,9.22A15.35,15.35,0,0,0,99,148.83c18.12-6.68,36.31-13.15,54.5-19.63C160,126.91,160.07,127,160,134.45Z"/><path class="cls-2" d="M160,112c.9,4.12-1.56,6.16-5.8,7.69-18.63,6.74-37.18,13.72-55.71,20.76a12.76,12.76,0,0,1-9.64.2C70.47,133.75,52,127,33.64,120c-5.39-2-7.19-6-5.62-11.41,1-3.42,3.23-1.5,4.79-1,15.75,5.43,31.6,10.58,47.1,16.65,8.71,3.41,16.42,3.95,25.36.23,15.82-6.58,32.2-11.79,48.33-17.65C159.66,104.7,160,104.88,160,112Z"/><path class="cls-3" d="M513.42,78A12.34,12.34,0,0,1,510,70.3c9.67-7.35,28.66-8.68,38.55-2.75,5.42,3.25,9.17,8.06,10,14.24,2.07,14.88.59,29.84,1,44.69-3.29,1.58-6.08.82-8.41.88-2.12-1.3-1.14-3.4-2.35-5-7.7,5.65-16.23,7.81-25.72,5.88-12.8-2.6-20.29-12.64-18-24.37,1.73-8.94,11-15.81,22.43-16.65a85,85,0,0,1,21.26,1.21c.53-7.49-3.1-12.51-10-14.17-7.1-1.73-13.87-.36-20.49,2.26C516.79,77.08,515.44,78.2,513.42,78ZM549.5,98.5c-9.08-1.77-17.85-3.62-26.73-.6-4.25,1.44-7.16,4.23-7.62,8.87a9.62,9.62,0,0,0,5.32,9.91c7.38,4,14.75,3.11,21.76-1C548.58,112,550.28,106,549.5,98.5Z"/><path class="cls-3" d="M283.5,76.26c-1.28,3-3.63,4.49-6.14,6.89-7.3-6.64-14.81-12.44-25.38-9.21a21,21,0,0,0-11.72,8.79c-6.08,9.21-4.59,22.86,3.21,30.36,9.15,8.8,18.42,7.84,34.21-3.68,2.68.92,4.48,3,6.23,5.09-4.54,10-18.59,16.11-31.65,13.82-13.77-2.42-25-14.54-26.21-28.4C224.61,84.11,233.47,69.87,247.8,65,260.89,60.52,276.16,65.24,283.5,76.26Z"/><path class="cls-3" d="M491.85,109.35c2.76,1.18,4.47,3.17,6.18,5-3.85,9.33-17.91,16-29.62,14.34A32.7,32.7,0,0,1,440.14,100c-1.68-14.82,7.14-29.53,20.8-34.68,13.23-5,28.67-.5,36.67,10.79-.86,3-3.59,4.41-6,7.2-7.47-6.94-15.17-12.7-25.91-9.21a20.9,20.9,0,0,0-11.53,9c-5.9,9.37-4.16,22.93,3.78,30.28C467.15,121.93,476.56,120.86,491.85,109.35Z"/><path class="cls-3" d="M365.06,73.59c-1.6-2.61-.82-5.32-.6-7.66,2.57-2.24,5.33-.8,8.22-2V47.23c3.36-2,6.29-.87,9.58-1.14,1.38,6.18,0,12.19.94,18.2,6.56.77,13-.41,19.55.73a15,15,0,0,1-.3,9.09H383c0,12.85-.19,25.12.09,37.38.12,5.42,4.43,7.81,10.93,7.22,2.77-.25,5.21-2.41,8.23-1.33,1.58,2.51.47,5.17.82,8A22,22,0,0,1,382,126.42c-6.46-2.92-9-8.55-9.09-15.38-.1-10.48-.06-21-.08-31.45,0-1.63,0-3.26,0-4.7C370.09,73.53,367.41,75,365.06,73.59Z"/><path class="cls-4" d="M710.92,76a5.15,5.15,0,0,1-2.67-4.12c7.76-7.46,31.68-10.57,42,.49a19.83,19.83,0,0,1,5.58,13.08c.29,13.64.1,27.28.1,40.87-1.82,1.53-3.51,1-5.07.61-1.36-2.29-.35-4.57-1-6.72-1.85-.43-2.45,1.31-3.47,2.15C737,130,721.08,131.25,711.2,125a18,18,0,0,1,.91-31.27c10.05-5.63,20.77-5.05,31.59-3,1.94.37,3.86.82,5.79,1.24,2-11.66-4.68-20-16.47-20.76A42.52,42.52,0,0,0,710.92,76Zm38.83,22.67c-4-2.31-8.35-2.54-12.56-3.1-7-.93-14-.6-20.49,2.36-4.49,2-7.51,5.32-7.86,10.58s1.68,9.48,6.44,11.91c8.75,4.47,17.39,3.31,25.61-1.43C748.57,114.57,751.2,107.67,749.76,98.65Z"/><path class="cls-4" d="M889.66,126.22a8,8,0,0,1-6.37.73L856.57,97.53l-12.69,11.75v17c-1.89,1.37-3.46,1.17-5.45.39V40.52c1.46-1.58,3.09-1.57,5.39-.11v61.13l37.57-35a7.19,7.19,0,0,1,6.24.86c-7.7,9.92-18.28,16.75-26.53,26.31C870,104.8,880.74,114.46,889.66,126.22Z"/><path class="cls-3" d="M304.53,127a16.91,16.91,0,0,1-8.85-.22v-61c3.9-1.66,4.75-1.68,9-.28.83,1.16.56,2.53.64,3.84s.17,2.61.31,4.87c7.35-6.76,14.86-11.59,24.9-10.1,1,3.31.6,6.36.34,9.49a14.55,14.55,0,0,1-2.15.67c-14.7,1.88-21.93,9.1-23.09,24-.59,7.62-.22,15.31-.33,23C305.31,123,305.7,124.89,304.53,127Z"/><path class="cls-4" d="M603,118.35a4.74,4.74,0,0,1,2.79-3.74c2,.11,3.19,1.58,4.71,2.56,8,5.16,16.57,6.82,25.74,4.09,4.59-1.36,8-4.06,8.11-9.48.12-5.25-3.17-7.87-7.43-9.48-5-1.87-10.06-3.48-15.18-4.95a39.2,39.2,0,0,1-9.16-3.89c-8.92-5.26-9.74-16.41-1.76-23.08,9.6-8,29.4-6.64,38.12,2.68.11,1.94-1.24,2.91-2.82,4.19-6.49-3.83-13.26-6.85-21.11-6.19a20.1,20.1,0,0,0-7.21,1.79c-3.51,1.7-5.88,4.22-6,8.43-.16,4,2.25,6.08,5.31,7.72,6.52,3.5,13.92,4.41,20.74,7.06,4.45,1.73,8.51,4,11.06,8.12,4.32,7,1.32,16.19-6.67,20.86C631,131.62,612,128.42,603,118.35Z"/><path class="cls-4" d="M825,77.17c-.28,1.86-1.39,2.88-3.9,3.18-7-7.19-15.6-11.61-26.45-9.14a24.2,24.2,0,0,0-14.31,9.35,27,27,0,0,0,2.93,35.5c10.94,10.42,22.78,9.34,38.42-3.53,1.76-.06,2.54,1.22,3.31,2.44.76,3.61-7.63,10.26-15.94,12.71-15.79,4.66-32.14-3.77-38.16-19.69-5.82-15.4,1.52-33.3,16.45-40.45C800.89,61.07,818.48,66.13,825,77.17Z"/><path class="cls-3" d="M576.46,40.33c3.06-1.71,6-1.06,9.31-.32v86.53c-3,1.52-5.95.73-9.31.71Z"/><path class="cls-4" d="M667.14,72.74c-3.12-1.34-5.8,0-8.13-1.43a3.6,3.6,0,0,1-.26-4.59c2.43-1.3,5.26,0,8.41-1.24V47.56c2.15-1.86,3.71-1.41,5.94-.91v19.4h20.15c2.05,2.14,1.71,3.64.81,5.43-6.72,1.32-13.57-.2-20.94,1,0,5.48,0,10.92,0,16.37.08,7.65.14,15.3.38,22.95.35,10.95,7.54,11.6,15.2,10.13,1.61-.31,3.12-1.18,5-.44,2.32,3.79-.14,5.46-3.32,6.22-12.56,3-22.82-1.67-23.21-16.53-.29-11-.07-22-.07-33C667.13,76.38,667.14,74.58,667.14,72.74Z"/><path class="cls-3" d="M426,126.91a17.37,17.37,0,0,1-9.29-.05V65.65c2.92-1.75,5.9-1.38,9.29-.29Z"/><path class="cls-3" d="M351.75,126.77a15.85,15.85,0,0,1-9.47,0V65.6c4.39-1.47,5.33-1.45,9.47.18Z"/><path class="cls-3" d="M341.45,42.49c3.85-1.31,7.19-.93,10.65-.33a21,21,0,0,1,.2,11c-3.47,1.8-6.82.74-10.19.76C340.45,50,341.09,46.41,341.45,42.49Z"/><path class="cls-3" d="M426.76,52.93c-3.68,1.45-5.4,1.53-10.46.47-1.42-3.51-1-7.16-.24-11,3.5-1.19,6.84-.76,10.35-.23C427.52,45.91,427.13,49.45,426.76,52.93Z"/><path class="cls-4" d="M912.07,55.26c-3.64,6-10.21,7-15.33,2.22l.39-.42c5.48,3.49,10.2,1.78,14.6-2.12Z"/><path class="cls-4" d="M896.93,42.13c4.73-3.82,7.95-3.9,12.35-.29l-.35.45c-3.92-1.85-7.81-1.32-11.69.16Z"/><path class="cls-4" d="M911,43.18c3.71,3.74,4.1,7.76,1,12.08l-.34-.31c1-4,.24-7.81-.85-11.63Z"/><path class="cls-4" d="M895.72,56.46c-3.79-3.53-3.75-7.41-1.07-11.54l.5.39a13.64,13.64,0,0,0,1,10.75Z"/><path class="cls-4" d="M894.65,44.93c.29-1.31.78-2.47,2.28-2.8l.31.31a4.44,4.44,0,0,1-2.09,2.88Z"/><path class="cls-4" d="M909.28,41.84,911,43.18l-.13.14a1.7,1.7,0,0,1-2-1Z"/><path class="cls-4" d="M896.74,57.48l-1-1,.42-.39,1,1Z"/><path class="cls-4" d="M906,50.18c-.21,4.08-2.94-.22-3.85,1.2-1.57.08-.65,2.23-2.56,2.39a20.88,20.88,0,0,1,.22-8.76c3-1.1,5.55-.88,7.64,1.48.61,1.81.25,3.07-1.49,3.74-.3-1.21.69-2.65-.92-3.87-2.29-.35-4.68-.71-3.62,3.46Z"/><path class="cls-4" d="M906.54,53.34q0,.3,0,.6Q906.52,53.64,906.54,53.34Z"/></g></g></svg>